<svg xmlns="http://www.w3.org/2000/svg" viewBox="0 0 641.46 247"><defs><style>.cls-1{fill:#69aa41;}.cls-2{font-size:36px;fill:#becd2d;font-family:ArialMT, Arial;letter-spacing:0.15em;}.cls-3{fill:#fff;}</style></defs><title>sciensano_logo_neg_white_added_text_fr_en</title><g id="Layer_2_copy" data-name="Layer 2 copy"><rect class="cls-1" width="641.46" height="247"/><text class="cls-2" transform="translate(41.55 216.78)">Belgian institute for health</text></g><g id="Calque_1" data-name="Calque 1"><path class="cls-3" d="M262.56,54.27c0-1.28-11-11.56-31-10.6C177.13,48,164.1,144.81,95.69,149.56a111.73,111.73,0,0,0,17.66-2.32c49.33-10.44,69.28-81.58,106.21-93.93,21.88-6.89,32.07,2.57,32.07,2.57s-10.28,16.53-30.05,20.71c-16.77,3.22-22.64,1.48-22.64,1.48l.09.81s10.27,3.77,29.19-.23C248.63,74.34,263,56.06,262.56,54.27Z"/><path class="cls-3" d="M212,45.38C166.57,55,156.67,116.77,109.9,133.64c-31.68,9.78-52.19-1.85-52.19-1.85s13.92-48.9,75.48-53.17c13.2-.92,27.35-.88,27.35-.88l0-.74S141,55.75,101.68,51.58C62,47.36,44.83,70.88,44.83,70.88s9.91,17.87,32.06,20.42l-2.52,1.57c-26.92,19.23-32.81,46.9-32.81,46.9s17.57,10,46.29,8.59c71.67-6,81-100.51,133.21-104.14A56.3,56.3,0,0,0,212,45.38ZM56.31,70.93s16.22-17.79,49-14.38c29.49,3.07,49.43,18.66,49.43,18.66a210.28,210.28,0,0,0-27.3-.11c-18.41,1.28-32.22,5.66-43.7,12C64,84.41,56.31,70.93,56.31,70.93Z"/><path class="cls-3" d="M343,146.89a8.91,8.91,0,0,1-3,6.6,10.62,10.62,0,0,1-7.29,2.51,10.27,10.27,0,0,1-7.32-2.71,9.19,9.19,0,0,1-2.86-7v-6.62h24.93V129.6a12.26,12.26,0,0,0-4.1-9.3,15,15,0,0,0-10.57-3.8,15.21,15.21,0,0,0-10.65,3.75,12.23,12.23,0,0,0-4.1,9.35V147a12.22,12.22,0,0,0,4.1,9.34,15.2,15.2,0,0,0,10.65,3.75,14.63,14.63,0,0,0,10.32-3.71,13.5,13.5,0,0,0,4.35-9.45l0-.27H343Zm-20.44-16.55a9.28,9.28,0,0,1,2.9-7,10.22,10.22,0,0,1,7.27-2.74,10.46,10.46,0,0,1,7.32,2.71,9.07,9.07,0,0,1,2.94,7v5.37H322.53ZM289,109.81h6V103.5h-6Zm244.17,6.69a13.94,13.94,0,0,0-6.2,1.48,17.55,17.55,0,0,0-3.91,2.36c-.4.38-.73.71-1,1l-.23-4h-6.47v41.92h7.15v-28c0-2,1-3.91,3-5.64a10.32,10.32,0,0,1,6.92-2.63,8.57,8.57,0,0,1,6.6,2.53,9.13,9.13,0,0,1,2.33,6.41v27.34h7.14V132.16a16,16,0,0,0-4.08-11.23C541.67,118,537.88,116.5,533.14,116.5ZM209.53,137.1c-2.1-.91-4.23-1.77-6.35-2.57a17.93,17.93,0,0,1-5.31-3,5.65,5.65,0,0,1,.32-9,8.86,8.86,0,0,1,5.52-1.89,9,9,0,0,1,6,2.09,6.7,6.7,0,0,1,2.56,5.11V128H217l0-.28a12.42,12.42,0,0,0-3.8-7.7A12.25,12.25,0,0,0,204,116.5a14,14,0,0,0-9.11,3,9.86,9.86,0,0,0-3.74,8,9.49,9.49,0,0,0,2.26,6.42,15.1,15.1,0,0,0,5.43,4c2.1.91,4.22,1.77,6.31,2.57a16.65,16.65,0,0,1,5.26,3.14,6.21,6.21,0,0,1,2.11,4.78,6.93,6.93,0,0,1-2.48,5.43A10.32,10.32,0,0,1,197,153.5a8.35,8.35,0,0,1-2.73-6.11v-.25h-4.57v.26a12.17,12.17,0,0,0,3.8,8.92c2.52,2.49,6,3.76,10.2,3.76a14.18,14.18,0,0,0,9.61-3.38,10.65,10.65,0,0,0,3.9-8.31,11.12,11.12,0,0,0-2.25-7.08A14,14,0,0,0,209.53,137.1Zm53.8,9.79a8.79,8.79,0,0,1-3.06,6.6,10.58,10.58,0,0,1-7.12,2.51,10.45,10.45,0,0,1-7.32-2.71,8.89,8.89,0,0,1-2.94-6.8v-16.4a8.88,8.88,0,0,1,2.94-6.81,10.46,10.46,0,0,1,7.32-2.71,9.88,9.88,0,0,1,6.82,2.5,8.7,8.7,0,0,1,2.94,6.36v.25h4.58l0-.27a13.33,13.33,0,0,0-4.31-9.2,14.15,14.15,0,0,0-10-3.72c-4.41,0-8,1.32-10.7,3.93a13.17,13.17,0,0,0-4.06,9.83v16.07a13.13,13.13,0,0,0,4.06,9.87,14.88,14.88,0,0,0,10.7,3.88,14.45,14.45,0,0,0,10.24-3.76,13.58,13.58,0,0,0,4.34-9.4l0-.27h-4.42ZM593.23,121a16.51,16.51,0,0,0-12-4.55,16.75,16.75,0,0,0-12.06,4.5,14.76,14.76,0,0,0-4.68,11V144.5a14.91,14.91,0,0,0,4.64,11.07c3.07,3,7.15,4.51,12.11,4.51a16.6,16.6,0,0,0,12-4.51,14.74,14.74,0,0,0,4.68-11V132A14.79,14.79,0,0,0,593.23,121Zm-2.63,24a8.41,8.41,0,0,1-2.53,6.15,9.25,9.25,0,0,1-6.82,2.53,9.45,9.45,0,0,1-6.9-2.58,8.41,8.41,0,0,1-2.61-6.19V131.58a8.28,8.28,0,0,1,2.61-6.15,9.53,9.53,0,0,1,6.9-2.54,9.26,9.26,0,0,1,6.82,2.54,8.4,8.4,0,0,1,2.53,6.15V145Zm-207-28.5a13.57,13.57,0,0,0-6.42,1.56,14.27,14.27,0,0,0-3.76,2.5c-.3.35-.56.65-.77.93l-.15-4.16h-4.4v41.92h4.58V130a8.74,8.74,0,0,1,3.14-6.68,11.06,11.06,0,0,1,7.62-2.83,9.37,9.37,0,0,1,7,2.74,10.5,10.5,0,0,1,2.66,7.6v28.42h4.57V130a13.2,13.2,0,0,0-3.84-9.62A13.83,13.83,0,0,0,383.56,116.5Zm98.89,0A16,16,0,0,0,472.23,120a12.83,12.83,0,0,0-5,8.79l0,.29h7.05l0-.22a6.18,6.18,0,0,1,2.63-4.22,9.38,9.38,0,0,1,5.56-1.61,7.47,7.47,0,0,1,7.86,7.61v1.91l-11.11.73a15.56,15.56,0,0,0-9.85,4.25,12.45,12.45,0,0,0-4.05,9.34,12,12,0,0,0,4.35,9.43A15.33,15.33,0,0,0,480,160.08a14.47,14.47,0,0,0,6.07-1.31,15.19,15.19,0,0,0,3.72-2.12c.32-.3.58-.56.81-.8v3.4h7V130.17a13.25,13.25,0,0,0-3.93-9.79C491,117.8,487.25,116.5,482.45,116.5ZM490.31,146c0,1.79-.95,3.52-2.81,5.15a10.63,10.63,0,0,1-7.2,2.46,8.22,8.22,0,0,1-5.59-2,6.17,6.17,0,0,1-2.27-4.78,6.39,6.39,0,0,1,2.08-4.82,8.33,8.33,0,0,1,5.23-2.21l10.57-.73V146Zm-50.74-9.47c-2.09-.91-4.2-1.72-6.27-2.41a22.39,22.39,0,0,1-5.24-2.45,3.91,3.91,0,0,1-2.08-3.3,4.73,4.73,0,0,1,1.86-3.82,7.48,7.48,0,0,1,4.93-1.56,6.4,6.4,0,0,1,6.78,6.45v.26h7.31v-.92a12.33,12.33,0,0,0-3.58-8.29c-2.39-2.64-5.92-4-10.5-4a15.24,15.24,0,0,0-10.27,3.42,11.28,11.28,0,0,0-4,8.93,9,9,0,0,0,2.26,6.18,14.6,14.6,0,0,0,5.48,3.79c2.12.85,4.26,1.65,6.35,2.37a18.74,18.74,0,0,1,5.27,2.69,4.7,4.7,0,0,1,2.1,3.85,5.05,5.05,0,0,1-2.14,4.18,8.83,8.83,0,0,1-5.56,1.69c-2.67,0-4.71-.74-6.06-2.2a6.91,6.91,0,0,1-2-4.75v-1H417v.84a13,13,0,0,0,.8,4.35,16.42,16.42,0,0,0,2.44,4.38,11.79,11.79,0,0,0,4.78,3.52,18.13,18.13,0,0,0,7.22,1.35,16.42,16.42,0,0,0,10.6-3.54,10.81,10.81,0,0,0,4.4-8.65,11.27,11.27,0,0,0-2.25-7.11A13.82,13.82,0,0,0,439.57,136.52ZM289.68,160.08h4.59V117.27h-4.59Z"/></g></svg>